<svg width="198" height="95" viewBox="0 0 198 95" fill="none" xmlns="http://www.w3.org/2000/svg">
<path d="M0.982031 35.8957C2.96719 35.2395 4.8293 34.6324 6.56836 34.0746C8.32383 33.5168 10.1695 32.9918 12.1055 32.4996C14.0414 31.991 15.8953 31.5891 17.6672 31.2938C19.0289 31.0641 20.4234 30.9492 21.8508 30.9492C24.2297 30.9492 25.7883 31.0148 26.5266 31.1461C27.6422 31.3594 28.6922 31.7039 29.6766 32.1797C30.6773 32.6555 31.5633 33.2953 32.3344 34.0992C33.1219 34.8867 33.7617 35.8219 34.2539 36.9047C34.4508 37.3477 34.5492 37.8152 34.5492 38.3074C34.5492 40.1449 33.5402 42.409 31.5223 45.0996C29.5207 47.7902 27.5027 50.1363 25.4684 52.1379C23.4504 54.1395 21.941 55.575 20.9402 56.4445L25.3699 71.973L18.9223 76.6242L7.62656 44.3613C7.59375 44.3613 7.43789 44.5172 7.15898 44.8289C6.88008 45.1406 6.51094 45.5508 6.05156 46.0594C5.60859 46.5516 5.32969 46.8551 5.21484 46.9699C5.16562 46.9699 5.00156 46.6172 4.72266 45.9117C4.46016 45.2063 4.09922 44.2301 3.63984 42.9832C3.19687 41.7199 2.69648 40.3254 2.13867 38.7996C1.56445 37.2574 1.17891 36.2895 0.982031 35.8957ZM16.9043 42.7371L18.9223 49.9969C19.9395 48.9633 21.2027 47.5523 22.7121 45.7641C24.2215 43.9758 24.9762 42.6797 24.9762 41.8758C24.9762 41.5641 24.8449 41.3836 24.5824 41.3344C23.8441 41.1703 23.1141 41.0883 22.3922 41.0883C20.2266 41.0883 18.3973 41.6379 16.9043 42.7371ZM53.0309 48.348C54.1957 48.9715 55.1391 49.8164 55.8609 50.8828C56.5992 51.9328 57.1324 53.1223 57.4605 54.4512C57.8051 55.7637 57.9773 57.1336 57.9773 58.5609C57.9773 59.7422 57.8789 60.8824 57.682 61.9816C57.5016 63.0809 57.2473 64.0898 56.9191 65.0086C56.591 65.9273 56.2055 66.7066 55.7625 67.3465C54.7289 68.8887 53.6215 70.2176 52.4402 71.3332C51.259 72.4488 50.0531 73.3512 48.8227 74.0402C47.5922 74.7129 46.3699 75.2051 45.1559 75.5168C43.9582 75.8449 42.7687 76.009 41.5875 76.009C40.193 76.009 38.8641 75.7875 37.6008 75.3445C36.3539 74.918 35.2875 74.352 34.4016 73.6465C32.9414 72.4324 31.8012 70.8 30.9809 68.7492C30.1605 66.682 29.7504 64.5 29.7504 62.2031C29.7504 58.2492 30.8906 55.0582 33.1711 52.6301C35.1234 50.5465 37.1414 48.9797 39.225 47.9297C41.3086 46.8633 43.4414 46.3301 45.6234 46.3301C46.9031 46.3301 48.1336 46.4941 49.3148 46.8223C50.4961 47.134 51.7348 47.6426 53.0309 48.348ZM51.5789 52.4824C51.3 53.7293 50.693 54.8285 49.7578 55.7801C48.8391 56.7316 47.9367 57.2074 47.0508 57.2074C46.6078 57.2074 46.2141 57.0926 45.8695 56.8629C45.3773 56.4691 45.1312 55.7801 45.1312 54.7957C45.1312 54.041 45.3773 53.2945 45.8695 52.5563C46.3781 51.818 47.1738 51.2355 48.2566 50.809C47.1738 50.809 46.1238 51.0141 45.1066 51.4242C44.1059 51.8344 43.2445 52.3676 42.5227 53.0238C41.8008 53.6637 41.2184 54.3938 40.7754 55.2141C40.3488 56.018 40.1355 56.8301 40.1355 57.6504C40.1355 59.1762 40.841 60.3902 42.252 61.2926C43.5645 62.1293 44.8113 62.5477 45.9926 62.5477C47.1574 62.5477 48.191 62.1621 49.0934 61.391C49.9957 60.6035 50.6848 59.6027 51.1605 58.3887C51.6363 57.1582 51.8742 55.9441 51.8742 54.7465C51.8742 53.9262 51.7758 53.1715 51.5789 52.4824ZM53.8922 33.8777L66.3937 28.6359L68.2148 57.0598L78.5016 51.4242L89.182 53.0238L75.2531 63.7043L88.3699 73.5973L88.9605 83.4656L69.6176 69.5613L70.2328 81.6445L58.5187 81.866L56.3039 39.1195L52.6863 39.9316L53.8922 33.8777ZM106.31 61.391L112.241 68.5523C111.765 69.9305 110.633 71.1938 108.845 72.3422C107.073 73.4906 104.957 74.393 102.496 75.0492C100.051 75.7219 97.6066 76.0582 95.1621 76.0582C92.9965 76.0582 91.0605 75.7711 89.3543 75.1969C87.6644 74.6227 86.3602 73.7531 85.4414 72.5883C83.85 70.5867 83.0543 68.0273 83.0543 64.9102C83.0543 62.4492 83.4973 60.0293 84.3832 57.6504C85.2855 55.2551 86.2371 53.5816 87.2379 52.6301C88.4355 51.498 89.7316 50.5547 91.1262 49.8C92.5371 49.0453 93.9973 48.4793 95.5066 48.102C97.016 47.7246 98.5664 47.5359 100.158 47.5359C102.241 47.5359 104.218 47.8723 106.089 48.5449C107.975 49.2012 109.624 50.1609 111.035 51.4242L97.5246 67.5434C98.7223 67.5434 99.8543 67.2973 100.921 66.8051C102.004 66.2965 102.996 65.5828 103.898 64.6641C104.801 63.7289 105.605 62.6379 106.31 61.391ZM99.4934 55.657C98.6894 55.2469 97.8691 55.0418 97.0324 55.0418C96.1465 55.0418 95.2852 55.2223 94.4484 55.5832C93.6281 55.9441 93.0457 56.3707 92.7012 56.8629C91.684 58.1754 91.1754 59.6191 91.1754 61.1941C91.1754 61.7684 91.2328 62.318 91.3477 62.843C91.4625 63.368 91.6594 64.0898 91.9383 65.0086L99.4934 55.657ZM86.8441 37.9137L99.9609 30.6539L105.596 39.3164L89.6742 42.3434L86.8441 37.9137Z" fill="#2061A4"/>
<path d="M125.161 50.9074C124.259 51.0223 123.364 51.3094 122.479 51.7688C121.609 52.2281 120.862 52.7695 120.239 53.393C119.616 54.0164 119.123 54.7055 118.762 55.4602C118.418 56.1984 118.246 56.9285 118.246 57.6504C118.246 59.1434 118.951 60.3574 120.362 61.2926C121.609 62.1293 122.872 62.5477 124.152 62.5477C124.398 62.5477 124.734 62.5148 125.161 62.4492V57.2074C124.718 57.2074 124.324 57.0926 123.98 56.8629C123.487 56.4691 123.241 55.7145 123.241 54.5988C123.241 52.991 123.881 51.7605 125.161 50.9074ZM124.939 27.0117L135.226 22.3852L135.841 55.7063C135.973 56.5594 136.038 57.5273 136.038 58.6102C136.038 59.5617 136.005 60.2672 135.94 60.7266L136.235 75.8121L125.161 76.4027V74.9016C123.356 75.6398 121.535 76.009 119.698 76.009C118.287 76.009 116.958 75.7957 115.711 75.3691C114.48 74.9426 113.414 74.3684 112.512 73.6465C111.052 72.4324 109.911 70.8 109.091 68.7492C108.271 66.682 107.861 64.5 107.861 62.2031C107.861 58.2492 109.001 55.0582 111.281 52.6301C113.25 50.5629 115.276 48.9961 117.36 47.9297C119.46 46.8633 121.601 46.3301 123.783 46.3301C124.39 46.3301 124.849 46.3465 125.161 46.3793L124.939 27.0117ZM156.71 61.391L162.641 68.5523C162.165 69.9305 161.033 71.1938 159.245 72.3422C157.473 73.4906 155.357 74.393 152.896 75.0492C150.451 75.7219 148.007 76.0582 145.562 76.0582C143.396 76.0582 141.461 75.7711 139.754 75.1969C138.064 74.6227 136.76 73.7531 135.841 72.5883C134.25 70.5867 133.454 68.0273 133.454 64.9102C133.454 62.4492 133.897 60.0293 134.783 57.6504C135.686 55.2551 136.637 53.5816 137.638 52.6301C138.836 51.498 140.132 50.5547 141.526 49.8C142.937 49.0453 144.397 48.4793 145.907 48.102C147.416 47.7246 148.966 47.5359 150.558 47.5359C152.641 47.5359 154.618 47.8723 156.489 48.5449C158.375 49.2012 160.024 50.1609 161.435 51.4242L147.925 67.5434C149.122 67.5434 150.254 67.2973 151.321 66.8051C152.404 66.2965 153.396 65.5828 154.298 64.6641C155.201 63.7289 156.005 62.6379 156.71 61.391ZM149.893 55.657C149.089 55.2469 148.269 55.0418 147.432 55.0418C146.546 55.0418 145.685 55.2223 144.848 55.5832C144.028 55.9441 143.446 56.3707 143.101 56.8629C142.084 58.1754 141.575 59.6191 141.575 61.1941C141.575 61.7684 141.633 62.318 141.748 62.843C141.862 63.368 142.059 64.0898 142.338 65.0086L149.893 55.657ZM176.865 70.3242L170.91 78.027L158.211 78.4207L170.516 62.1539L156.612 44.1645L170.098 44.7551L176.865 53.6883L183.608 44.7551L197.119 44.1645L183.214 62.1539L195.519 78.4207L182.796 78.027L176.865 70.3242Z" fill="#CD3131"/>
<path d="M76.8886 16.0428H73.8643C74.5784 14.8176 74.9696 13.4393 75.0029 12.0309C75.0362 10.6226 74.7106 9.22818 74.0551 7.97232C74.0739 7.96558 74.0938 7.9621 74.1139 7.96204H76.8873C77.5119 7.96204 77.7648 7.1449 77.2524 6.79708L67.1691 0.277303C66.9038 0.0967984 66.5879 0 66.2642 0C65.9404 0 65.6245 0.0967984 65.3592 0.277303L55.2746 6.79386C54.7622 7.14168 55.0144 7.95882 55.6397 7.95882H58.4211C58.439 7.95888 58.4568 7.9617 58.4739 7.96718C57.8172 9.22346 57.4908 10.6187 57.5239 12.028C57.5571 13.4373 57.9489 14.8165 58.6641 16.0422H55.6397C55.0144 16.0422 54.7622 16.8593 55.2746 17.2071L65.3592 23.7237C65.6248 23.9036 65.9406 24 66.2642 24C66.5877 24 66.9035 23.9036 67.1691 23.7237L77.2531 17.2078C77.7662 16.8599 77.5133 16.0428 76.8886 16.0428ZM68.8986 16.9827C68.8908 17.0013 68.8772 17.0169 68.8598 17.0274C68.8423 17.0379 68.8219 17.0428 68.8014 17.0413C68.7809 17.0398 68.7615 17.032 68.7458 17.0191C68.7302 17.0061 68.7191 16.9887 68.7143 16.9692C68.4542 15.8994 67.6578 14.8875 66.2876 14.8875C64.9174 14.8875 64.1217 15.8994 63.8609 16.9692C63.8561 16.9887 63.845 17.0061 63.8294 17.0191C63.8137 17.032 63.7943 17.0398 63.7738 17.0413C63.7533 17.0428 63.7329 17.0379 63.7154 17.0274C63.698 17.0169 63.6844 17.0013 63.6766 16.9827C63.5011 16.5655 63.4337 16.1126 63.4804 15.6641C63.5271 15.2155 63.6865 14.785 63.9445 14.4106C64.2026 14.0362 64.5513 13.7294 64.9599 13.5172C65.3685 13.305 65.8245 13.1941 66.2876 13.1941C66.7507 13.1941 67.2067 13.305 67.6153 13.5172C68.0239 13.7294 68.3726 14.0362 68.6307 14.4106C68.8887 14.785 69.0481 15.2155 69.0948 15.6641C69.1415 16.1126 69.0741 16.5655 68.8986 16.9827ZM71.1358 15.8159C70.9515 16.2428 70.6983 16.6383 70.3856 16.9872C70.3621 17.0149 70.3293 17.0334 70.293 17.0396C70.2567 17.0458 70.2193 17.0393 70.1876 17.0211C70.1558 17.0029 70.1317 16.9743 70.1196 16.9405C70.1075 16.9066 70.1082 16.8696 70.1215 16.8362L70.1268 16.822C70.4507 15.9005 70.4005 14.8932 69.9864 14.0066C69.5723 13.1199 68.8257 12.421 67.8995 12.0529C65.9574 11.2711 63.7394 12.0889 62.8189 13.882C62.8165 13.8854 62.8145 13.8891 62.8129 13.8929C62.7978 13.9249 62.7716 13.9508 62.7389 13.966C62.7063 13.9812 62.6691 13.9848 62.634 13.9762C62.5989 13.9676 62.568 13.9473 62.5466 13.9188C62.5253 13.8903 62.5148 13.8555 62.5171 13.8203C62.5537 13.3586 62.6668 12.9057 62.8519 12.4791C63.8054 10.274 66.4335 9.23307 68.7209 10.1537C69.2631 10.369 69.7561 10.6867 70.1714 11.0885C70.5867 11.4903 70.9162 11.9682 71.1407 12.4947C71.3652 13.0211 71.4804 13.5857 71.4795 14.1557C71.4787 14.7258 71.3619 15.29 71.1358 15.8159ZM72.879 12.89C72.8711 12.9422 72.8444 12.99 72.8036 13.0249C72.7628 13.0597 72.7106 13.0792 72.6564 13.08C72.6021 13.0808 72.5493 13.0627 72.5075 13.0291C72.4657 12.9954 72.4375 12.9484 72.428 12.8964C72.3639 12.5287 72.2601 12.1686 72.1183 11.8221C71.0011 9.07492 67.6281 7.61422 64.7986 8.68338C61.969 9.75255 60.7514 12.9459 61.8673 15.6937C62.0078 16.0408 62.1848 16.3728 62.3956 16.6844C62.4211 16.7283 62.4305 16.7793 62.4222 16.8291C62.4138 16.8789 62.3883 16.9244 62.3498 16.9581C62.3112 16.9917 62.262 17.0116 62.2103 17.0143C62.1586 17.0171 62.1075 17.0025 62.0654 16.9731C61.2804 16.3453 60.6538 15.5505 60.2338 14.6499C59.8139 13.7492 59.6119 12.7668 59.6433 11.7781C59.6747 10.7895 59.9388 9.82108 60.4151 8.94743C60.8914 8.07378 61.5673 7.31821 62.3907 6.7389C63.2141 6.15959 64.1631 5.77198 65.1646 5.60594C66.1661 5.43989 67.1933 5.49983 68.1673 5.78114C69.1412 6.06244 70.0359 6.55762 70.7824 7.22853C71.5288 7.89944 72.1072 8.72819 72.4729 9.65097C72.8935 10.6781 73.0334 11.7938 72.879 12.8893V12.89Z" fill="#2061A4"/>
<path d="M91.9108 14.1976C91.9108 15.3497 91.59 16.2382 90.9486 16.863C90.3072 17.4877 89.3909 17.801 88.1998 17.8028C87.026 17.8028 86.1188 17.4926 85.4784 16.8723C84.8379 16.2519 84.5172 15.3599 84.5162 14.1963V4.11328H81.5887V14.3744C81.5887 15.6276 81.8594 16.7189 82.401 17.6486C82.9313 18.5671 83.731 19.3132 84.699 19.7928C85.6905 20.2944 86.8565 20.5452 88.197 20.5452C89.554 20.5452 90.7278 20.2909 91.7183 19.7822C92.6833 19.2978 93.4818 18.5523 94.0164 17.6366C94.5579 16.715 94.8287 15.6276 94.8287 14.3744V4.11328H91.9011L91.9108 14.1976Z" fill="#2061A4"/>
<path d="M103.984 9.02257C103.251 9.01647 102.527 9.17578 101.869 9.48784C101.254 9.76895 100.734 10.214 100.372 10.7707L100.142 9.36155H97.5583V20.286H100.348V14.3971C100.348 13.5109 100.592 12.8019 101.08 12.2701C101.567 11.7384 102.246 11.4725 103.115 11.4725C103.848 11.4725 104.428 11.6976 104.854 12.1478C105.28 12.598 105.493 13.2796 105.493 14.1924V20.2741H108.283V13.5569C108.283 12.1558 107.921 11.048 107.197 10.2336C106.473 9.41916 105.402 9.01548 103.984 9.02257Z" fill="#2061A4"/>
<path d="M111.938 3.91135C111.715 3.90658 111.494 3.94533 111.288 4.02529C111.081 4.10525 110.894 4.22475 110.736 4.37662C110.577 4.52492 110.451 4.70373 110.366 4.90168C110.282 5.09963 110.241 5.31241 110.246 5.5265C110.246 5.9605 110.424 6.37673 110.741 6.68362C111.059 6.99051 111.489 7.16291 111.938 7.16291C112.386 7.16291 112.817 6.99051 113.134 6.68362C113.451 6.37673 113.63 5.9605 113.63 5.5265C113.635 5.31228 113.594 5.09937 113.509 4.90137C113.424 4.70338 113.298 4.52466 113.137 4.37662C112.98 4.22491 112.793 4.1055 112.587 4.02555C112.38 3.9456 112.16 3.90676 111.938 3.91135Z" fill="#2061A4"/>
<path d="M113.36 9.35484H110.57V20.2807H113.36V9.35484Z" fill="#2061A4"/>
<path d="M120.333 3.82608C119.6 3.81054 118.872 3.95788 118.207 4.25678C117.595 4.54607 117.098 5.01958 116.788 5.60606C116.453 6.21756 116.285 7.02491 116.285 8.02812V9.35745H114.662V11.6173H116.285V20.2859H119.052V11.6107H121.751V9.36144H119.052V8.0321C119.052 7.48708 119.17 7.05194 119.407 6.72669C119.643 6.40145 120.112 6.23927 120.813 6.24016H121.775V3.9404C121.537 3.89558 121.296 3.86583 121.055 3.85134C120.802 3.83406 120.563 3.82608 120.333 3.82608Z" fill="#2061A4"/>
<path d="M131.228 9.77496C130.264 9.29536 129.196 9.04515 128.113 9.04515C127.029 9.04515 125.961 9.29536 124.998 9.77496C124.101 10.2436 123.357 10.9441 122.848 11.7982C122.337 12.7199 122.07 13.7495 122.07 14.7952C122.07 15.8409 122.337 16.8705 122.848 17.7922C123.356 18.6459 124.099 19.3464 124.995 19.8154C125.958 20.2951 127.026 20.5453 128.11 20.5453C129.194 20.5453 130.262 20.2951 131.225 19.8154C132.117 19.344 132.857 18.6439 133.364 17.7922C133.875 16.8705 134.142 15.8409 134.142 14.7952C134.142 13.7495 133.875 12.7199 133.364 11.7982C132.858 10.9468 132.119 10.2468 131.228 9.77496ZM130.942 16.54C130.682 17.0265 130.287 17.4327 129.8 17.7124C129.286 17.9995 128.7 18.1456 128.107 18.1352C127.517 18.1475 126.936 18.0022 126.427 17.7151C125.943 17.4308 125.548 17.0246 125.284 16.54C125.005 15.9949 124.86 15.3952 124.86 14.7872C124.86 14.1793 125.005 13.5795 125.284 13.0345C125.551 12.5555 125.946 12.1543 126.427 11.8727C126.936 11.5856 127.517 11.4402 128.107 11.4526C128.702 11.4411 129.29 11.5873 129.805 11.8753C130.29 12.1532 130.685 12.5554 130.948 13.0372C131.219 13.5842 131.36 14.1831 131.36 14.7899C131.36 15.3966 131.219 15.9956 130.948 16.5426L130.942 16.54Z" fill="#2061A4"/>
<path d="M142.353 9.20062C142.155 9.186 141.955 9.17802 141.758 9.17802C140.859 9.17802 140.126 9.40667 139.558 9.86396C139.182 10.1667 138.885 10.5517 138.692 10.9872L138.53 9.37742H135.904V20.278H138.694V14.9726C138.694 13.9091 138.983 13.1164 139.563 12.5944C140.142 12.0724 140.942 11.811 141.964 11.8101H143V9.31095C142.788 9.2552 142.571 9.21827 142.353 9.20062Z" fill="#2061A4"/>
</svg>
